<mxfile host="app.diagrams.net" modified="2024-02-27T14:30:05.353Z" agent="Mozilla/5.0 (Windows NT 10.0; Win64; x64) AppleWebKit/537.36 (KHTML, like Gecko) Chrome/121.0.0.0 Safari/537.36" etag="0FyVSpzXLXWye1csakSk" version="23.1.7" type="github">
  <diagram id="C5RBs43oDa-KdzZeNtuy" name="Page-1">
    <mxGraphModel dx="1434" dy="746" grid="1" gridSize="10" guides="1" tooltips="1" connect="1" arrows="1" fold="1" page="1" pageScale="1" pageWidth="827" pageHeight="1169" math="0" shadow="0">
      <root>
        <mxCell id="WIyWlLk6GJQsqaUBKTNV-0" />
        <mxCell id="WIyWlLk6GJQsqaUBKTNV-1" parent="WIyWlLk6GJQsqaUBKTNV-0" />
        <mxCell id="otYcFLlBqvZuVtRaeN3p-1" value="&lt;u&gt;IdCliente&lt;/u&gt;" style="ellipse;whiteSpace=wrap;html=1;fillColor=#d5e8d4;strokeColor=#82b366;" vertex="1" parent="WIyWlLk6GJQsqaUBKTNV-1">
          <mxGeometry x="40" y="170" width="90" height="40" as="geometry" />
        </mxCell>
        <mxCell id="otYcFLlBqvZuVtRaeN3p-6" value="nome" style="ellipse;whiteSpace=wrap;html=1;fillColor=#d5e8d4;strokeColor=#82b366;" vertex="1" parent="WIyWlLk6GJQsqaUBKTNV-1">
          <mxGeometry x="80" y="220" width="90" height="40" as="geometry" />
        </mxCell>
        <mxCell id="otYcFLlBqvZuVtRaeN3p-7" value="cliente" style="rounded=0;whiteSpace=wrap;html=1;fillColor=#e1d5e7;strokeColor=#9673a6;" vertex="1" parent="WIyWlLk6GJQsqaUBKTNV-1">
          <mxGeometry x="140" y="50" width="120" height="50" as="geometry" />
        </mxCell>
        <mxCell id="otYcFLlBqvZuVtRaeN3p-9" value="entrega" style="rounded=0;whiteSpace=wrap;html=1;fillColor=#e1d5e7;strokeColor=#9673a6;" vertex="1" parent="WIyWlLk6GJQsqaUBKTNV-1">
          <mxGeometry x="470" y="320" width="120" height="50" as="geometry" />
        </mxCell>
        <mxCell id="otYcFLlBqvZuVtRaeN3p-10" value="funcionario" style="rounded=0;whiteSpace=wrap;html=1;fillColor=#e1d5e7;strokeColor=#9673a6;" vertex="1" parent="WIyWlLk6GJQsqaUBKTNV-1">
          <mxGeometry x="570" y="10" width="120" height="50" as="geometry" />
        </mxCell>
        <mxCell id="otYcFLlBqvZuVtRaeN3p-12" value="" style="endArrow=none;html=1;rounded=0;entryX=0.5;entryY=1;entryDx=0;entryDy=0;exitX=0.5;exitY=0;exitDx=0;exitDy=0;" edge="1" parent="WIyWlLk6GJQsqaUBKTNV-1" source="otYcFLlBqvZuVtRaeN3p-1" target="otYcFLlBqvZuVtRaeN3p-7">
          <mxGeometry width="50" height="50" relative="1" as="geometry">
            <mxPoint x="200" y="140" as="sourcePoint" />
            <mxPoint x="220" y="90" as="targetPoint" />
          </mxGeometry>
        </mxCell>
        <mxCell id="otYcFLlBqvZuVtRaeN3p-14" value="endereco" style="ellipse;whiteSpace=wrap;html=1;fillColor=#d5e8d4;strokeColor=#82b366;" vertex="1" parent="WIyWlLk6GJQsqaUBKTNV-1">
          <mxGeometry x="155" y="180" width="90" height="40" as="geometry" />
        </mxCell>
        <mxCell id="otYcFLlBqvZuVtRaeN3p-16" value="email" style="ellipse;whiteSpace=wrap;html=1;fillColor=#d5e8d4;strokeColor=#82b366;" vertex="1" parent="WIyWlLk6GJQsqaUBKTNV-1">
          <mxGeometry x="260" y="170" width="90" height="40" as="geometry" />
        </mxCell>
        <mxCell id="otYcFLlBqvZuVtRaeN3p-18" value="" style="endArrow=none;html=1;rounded=0;entryX=0.5;entryY=1;entryDx=0;entryDy=0;exitX=0.5;exitY=0;exitDx=0;exitDy=0;" edge="1" parent="WIyWlLk6GJQsqaUBKTNV-1" source="otYcFLlBqvZuVtRaeN3p-6">
          <mxGeometry width="50" height="50" relative="1" as="geometry">
            <mxPoint x="199.5" y="140" as="sourcePoint" />
            <mxPoint x="199.5" y="100" as="targetPoint" />
          </mxGeometry>
        </mxCell>
        <mxCell id="otYcFLlBqvZuVtRaeN3p-19" value="" style="endArrow=none;html=1;rounded=0;exitX=0.5;exitY=0;exitDx=0;exitDy=0;" edge="1" parent="WIyWlLk6GJQsqaUBKTNV-1" source="otYcFLlBqvZuVtRaeN3p-14">
          <mxGeometry width="50" height="50" relative="1" as="geometry">
            <mxPoint x="220" y="220" as="sourcePoint" />
            <mxPoint x="200" y="100" as="targetPoint" />
          </mxGeometry>
        </mxCell>
        <mxCell id="otYcFLlBqvZuVtRaeN3p-21" value="" style="endArrow=none;html=1;rounded=0;exitX=0.5;exitY=0;exitDx=0;exitDy=0;" edge="1" parent="WIyWlLk6GJQsqaUBKTNV-1" source="otYcFLlBqvZuVtRaeN3p-16">
          <mxGeometry width="50" height="50" relative="1" as="geometry">
            <mxPoint x="270" y="180" as="sourcePoint" />
            <mxPoint x="200" y="100" as="targetPoint" />
          </mxGeometry>
        </mxCell>
        <mxCell id="otYcFLlBqvZuVtRaeN3p-22" value="telefone" style="ellipse;whiteSpace=wrap;html=1;fillColor=#d5e8d4;strokeColor=#82b366;" vertex="1" parent="WIyWlLk6GJQsqaUBKTNV-1">
          <mxGeometry x="220" y="220" width="90" height="40" as="geometry" />
        </mxCell>
        <mxCell id="otYcFLlBqvZuVtRaeN3p-23" value="" style="endArrow=none;html=1;rounded=0;exitX=0.5;exitY=0;exitDx=0;exitDy=0;entryX=0.5;entryY=1;entryDx=0;entryDy=0;" edge="1" parent="WIyWlLk6GJQsqaUBKTNV-1" source="otYcFLlBqvZuVtRaeN3p-22" target="otYcFLlBqvZuVtRaeN3p-7">
          <mxGeometry width="50" height="50" relative="1" as="geometry">
            <mxPoint x="349.5" y="160" as="sourcePoint" />
            <mxPoint x="170" y="70" as="targetPoint" />
          </mxGeometry>
        </mxCell>
        <mxCell id="otYcFLlBqvZuVtRaeN3p-88" value="&lt;u&gt;IdFuncionario&lt;/u&gt;" style="ellipse;whiteSpace=wrap;html=1;fillColor=#d5e8d4;strokeColor=#82b366;" vertex="1" parent="WIyWlLk6GJQsqaUBKTNV-1">
          <mxGeometry x="470" y="130" width="90" height="40" as="geometry" />
        </mxCell>
        <mxCell id="otYcFLlBqvZuVtRaeN3p-89" value="nome" style="ellipse;whiteSpace=wrap;html=1;fillColor=#d5e8d4;strokeColor=#82b366;" vertex="1" parent="WIyWlLk6GJQsqaUBKTNV-1">
          <mxGeometry x="530" y="170" width="90" height="40" as="geometry" />
        </mxCell>
        <mxCell id="otYcFLlBqvZuVtRaeN3p-90" value="" style="endArrow=none;html=1;rounded=0;entryX=0.5;entryY=1;entryDx=0;entryDy=0;exitX=0.5;exitY=0;exitDx=0;exitDy=0;" edge="1" parent="WIyWlLk6GJQsqaUBKTNV-1" source="otYcFLlBqvZuVtRaeN3p-88">
          <mxGeometry width="50" height="50" relative="1" as="geometry">
            <mxPoint x="630" y="100" as="sourcePoint" />
            <mxPoint x="630" y="60" as="targetPoint" />
          </mxGeometry>
        </mxCell>
        <mxCell id="otYcFLlBqvZuVtRaeN3p-91" value="cargo" style="ellipse;whiteSpace=wrap;html=1;fillColor=#d5e8d4;strokeColor=#82b366;" vertex="1" parent="WIyWlLk6GJQsqaUBKTNV-1">
          <mxGeometry x="650" y="170" width="90" height="40" as="geometry" />
        </mxCell>
        <mxCell id="otYcFLlBqvZuVtRaeN3p-93" value="" style="endArrow=none;html=1;rounded=0;entryX=0.5;entryY=1;entryDx=0;entryDy=0;exitX=0.5;exitY=0;exitDx=0;exitDy=0;" edge="1" parent="WIyWlLk6GJQsqaUBKTNV-1" source="otYcFLlBqvZuVtRaeN3p-89">
          <mxGeometry width="50" height="50" relative="1" as="geometry">
            <mxPoint x="629.5" y="100" as="sourcePoint" />
            <mxPoint x="629.5" y="60" as="targetPoint" />
          </mxGeometry>
        </mxCell>
        <mxCell id="otYcFLlBqvZuVtRaeN3p-94" value="" style="endArrow=none;html=1;rounded=0;exitX=0.5;exitY=0;exitDx=0;exitDy=0;" edge="1" parent="WIyWlLk6GJQsqaUBKTNV-1" source="otYcFLlBqvZuVtRaeN3p-91">
          <mxGeometry width="50" height="50" relative="1" as="geometry">
            <mxPoint x="650" y="180" as="sourcePoint" />
            <mxPoint x="630" y="60" as="targetPoint" />
          </mxGeometry>
        </mxCell>
        <mxCell id="otYcFLlBqvZuVtRaeN3p-96" value="salario" style="ellipse;whiteSpace=wrap;html=1;fillColor=#d5e8d4;strokeColor=#82b366;" vertex="1" parent="WIyWlLk6GJQsqaUBKTNV-1">
          <mxGeometry x="710" y="130" width="90" height="40" as="geometry" />
        </mxCell>
        <mxCell id="otYcFLlBqvZuVtRaeN3p-97" value="" style="endArrow=none;html=1;rounded=0;exitX=0.5;exitY=0;exitDx=0;exitDy=0;entryX=0.5;entryY=1;entryDx=0;entryDy=0;" edge="1" parent="WIyWlLk6GJQsqaUBKTNV-1" source="otYcFLlBqvZuVtRaeN3p-96">
          <mxGeometry width="50" height="50" relative="1" as="geometry">
            <mxPoint x="779.5" y="120" as="sourcePoint" />
            <mxPoint x="630" y="60" as="targetPoint" />
          </mxGeometry>
        </mxCell>
        <mxCell id="otYcFLlBqvZuVtRaeN3p-110" value="&lt;u&gt;IdVeiculo&lt;/u&gt;" style="ellipse;whiteSpace=wrap;html=1;fillColor=#d5e8d4;strokeColor=#82b366;" vertex="1" parent="WIyWlLk6GJQsqaUBKTNV-1">
          <mxGeometry x="370" y="440" width="90" height="40" as="geometry" />
        </mxCell>
        <mxCell id="otYcFLlBqvZuVtRaeN3p-111" value="&lt;u&gt;IdEntrega&lt;/u&gt;" style="ellipse;whiteSpace=wrap;html=1;fillColor=#d5e8d4;strokeColor=#82b366;" vertex="1" parent="WIyWlLk6GJQsqaUBKTNV-1">
          <mxGeometry x="410" y="490" width="90" height="40" as="geometry" />
        </mxCell>
        <mxCell id="otYcFLlBqvZuVtRaeN3p-112" value="" style="endArrow=none;html=1;rounded=0;entryX=0.5;entryY=1;entryDx=0;entryDy=0;exitX=0.5;exitY=0;exitDx=0;exitDy=0;" edge="1" parent="WIyWlLk6GJQsqaUBKTNV-1" source="otYcFLlBqvZuVtRaeN3p-110">
          <mxGeometry width="50" height="50" relative="1" as="geometry">
            <mxPoint x="530" y="410" as="sourcePoint" />
            <mxPoint x="530" y="370" as="targetPoint" />
          </mxGeometry>
        </mxCell>
        <mxCell id="otYcFLlBqvZuVtRaeN3p-113" value="&lt;span style=&quot;font-weight: normal;&quot;&gt;&lt;u&gt;IdRota&lt;/u&gt;&lt;/span&gt;" style="ellipse;whiteSpace=wrap;html=1;fontStyle=1;fillColor=#d5e8d4;strokeColor=#82b366;" vertex="1" parent="WIyWlLk6GJQsqaUBKTNV-1">
          <mxGeometry x="650" y="310" width="90" height="40" as="geometry" />
        </mxCell>
        <mxCell id="otYcFLlBqvZuVtRaeN3p-114" value="fim" style="ellipse;whiteSpace=wrap;html=1;fillColor=#d5e8d4;strokeColor=#82b366;" vertex="1" parent="WIyWlLk6GJQsqaUBKTNV-1">
          <mxGeometry x="541" y="480" width="90" height="40" as="geometry" />
        </mxCell>
        <mxCell id="otYcFLlBqvZuVtRaeN3p-115" value="" style="endArrow=none;html=1;rounded=0;entryX=0.5;entryY=1;entryDx=0;entryDy=0;exitX=0.5;exitY=0;exitDx=0;exitDy=0;" edge="1" parent="WIyWlLk6GJQsqaUBKTNV-1" source="otYcFLlBqvZuVtRaeN3p-111">
          <mxGeometry width="50" height="50" relative="1" as="geometry">
            <mxPoint x="529.5" y="410" as="sourcePoint" />
            <mxPoint x="529.5" y="370" as="targetPoint" />
          </mxGeometry>
        </mxCell>
        <mxCell id="otYcFLlBqvZuVtRaeN3p-116" value="" style="endArrow=none;html=1;rounded=0;exitX=0;exitY=0.5;exitDx=0;exitDy=0;fontStyle=1;entryX=1;entryY=0.5;entryDx=0;entryDy=0;" edge="1" parent="WIyWlLk6GJQsqaUBKTNV-1" source="otYcFLlBqvZuVtRaeN3p-113" target="otYcFLlBqvZuVtRaeN3p-9">
          <mxGeometry width="50" height="50" relative="1" as="geometry">
            <mxPoint x="380" y="280" as="sourcePoint" />
            <mxPoint x="380" y="320" as="targetPoint" />
          </mxGeometry>
        </mxCell>
        <mxCell id="otYcFLlBqvZuVtRaeN3p-117" value="" style="endArrow=none;html=1;rounded=0;exitX=0.5;exitY=0;exitDx=0;exitDy=0;" edge="1" parent="WIyWlLk6GJQsqaUBKTNV-1" source="otYcFLlBqvZuVtRaeN3p-114">
          <mxGeometry width="50" height="50" relative="1" as="geometry">
            <mxPoint x="600" y="450" as="sourcePoint" />
            <mxPoint x="530" y="370" as="targetPoint" />
          </mxGeometry>
        </mxCell>
        <mxCell id="otYcFLlBqvZuVtRaeN3p-118" value="inicio" style="ellipse;whiteSpace=wrap;html=1;fillColor=#d5e8d4;strokeColor=#82b366;" vertex="1" parent="WIyWlLk6GJQsqaUBKTNV-1">
          <mxGeometry x="485" y="520" width="90" height="40" as="geometry" />
        </mxCell>
        <mxCell id="otYcFLlBqvZuVtRaeN3p-119" value="" style="endArrow=none;html=1;rounded=0;exitX=0.5;exitY=0;exitDx=0;exitDy=0;entryX=0.5;entryY=1;entryDx=0;entryDy=0;" edge="1" parent="WIyWlLk6GJQsqaUBKTNV-1" source="otYcFLlBqvZuVtRaeN3p-118">
          <mxGeometry width="50" height="50" relative="1" as="geometry">
            <mxPoint x="679.5" y="430" as="sourcePoint" />
            <mxPoint x="530" y="370" as="targetPoint" />
          </mxGeometry>
        </mxCell>
        <mxCell id="otYcFLlBqvZuVtRaeN3p-120" value="pedido" style="rounded=0;whiteSpace=wrap;html=1;fillColor=#e1d5e7;strokeColor=#9673a6;" vertex="1" parent="WIyWlLk6GJQsqaUBKTNV-1">
          <mxGeometry x="180" y="350" width="120" height="50" as="geometry" />
        </mxCell>
        <mxCell id="otYcFLlBqvZuVtRaeN3p-121" value="veiculo" style="rounded=0;whiteSpace=wrap;html=1;fillColor=#e1d5e7;strokeColor=#9673a6;" vertex="1" parent="WIyWlLk6GJQsqaUBKTNV-1">
          <mxGeometry x="190" y="600" width="120" height="50" as="geometry" />
        </mxCell>
        <mxCell id="otYcFLlBqvZuVtRaeN3p-122" value="rota" style="rounded=0;whiteSpace=wrap;html=1;fillColor=#e1d5e7;strokeColor=#9673a6;" vertex="1" parent="WIyWlLk6GJQsqaUBKTNV-1">
          <mxGeometry x="540" y="600" width="120" height="50" as="geometry" />
        </mxCell>
        <mxCell id="otYcFLlBqvZuVtRaeN3p-123" value="placa" style="ellipse;whiteSpace=wrap;html=1;fillColor=#d5e8d4;strokeColor=#82b366;" vertex="1" parent="WIyWlLk6GJQsqaUBKTNV-1">
          <mxGeometry x="100" y="720" width="90" height="40" as="geometry" />
        </mxCell>
        <mxCell id="otYcFLlBqvZuVtRaeN3p-125" value="&lt;u&gt;IdVeiculo&lt;/u&gt;" style="ellipse;whiteSpace=wrap;html=1;fillColor=#d5e8d4;strokeColor=#82b366;" vertex="1" parent="WIyWlLk6GJQsqaUBKTNV-1">
          <mxGeometry x="150" y="770" width="90" height="40" as="geometry" />
        </mxCell>
        <mxCell id="otYcFLlBqvZuVtRaeN3p-126" value="capacidade" style="ellipse;whiteSpace=wrap;html=1;fillColor=#d5e8d4;strokeColor=#82b366;" vertex="1" parent="WIyWlLk6GJQsqaUBKTNV-1">
          <mxGeometry x="310" y="720" width="90" height="40" as="geometry" />
        </mxCell>
        <mxCell id="otYcFLlBqvZuVtRaeN3p-127" value="" style="endArrow=none;html=1;rounded=0;entryX=0.5;entryY=1;entryDx=0;entryDy=0;exitX=0.5;exitY=0;exitDx=0;exitDy=0;" edge="1" parent="WIyWlLk6GJQsqaUBKTNV-1" source="otYcFLlBqvZuVtRaeN3p-123">
          <mxGeometry width="50" height="50" relative="1" as="geometry">
            <mxPoint x="249.5" y="690" as="sourcePoint" />
            <mxPoint x="249.5" y="650" as="targetPoint" />
          </mxGeometry>
        </mxCell>
        <mxCell id="otYcFLlBqvZuVtRaeN3p-128" value="" style="endArrow=none;html=1;rounded=0;exitX=0.5;exitY=0;exitDx=0;exitDy=0;" edge="1" parent="WIyWlLk6GJQsqaUBKTNV-1" source="otYcFLlBqvZuVtRaeN3p-125">
          <mxGeometry width="50" height="50" relative="1" as="geometry">
            <mxPoint x="270" y="770" as="sourcePoint" />
            <mxPoint x="250" y="650" as="targetPoint" />
          </mxGeometry>
        </mxCell>
        <mxCell id="otYcFLlBqvZuVtRaeN3p-129" value="" style="endArrow=none;html=1;rounded=0;exitX=0.5;exitY=0;exitDx=0;exitDy=0;" edge="1" parent="WIyWlLk6GJQsqaUBKTNV-1" source="otYcFLlBqvZuVtRaeN3p-126">
          <mxGeometry width="50" height="50" relative="1" as="geometry">
            <mxPoint x="320" y="730" as="sourcePoint" />
            <mxPoint x="250" y="650" as="targetPoint" />
          </mxGeometry>
        </mxCell>
        <mxCell id="otYcFLlBqvZuVtRaeN3p-130" value="modelo" style="ellipse;whiteSpace=wrap;html=1;fillColor=#d5e8d4;strokeColor=#82b366;" vertex="1" parent="WIyWlLk6GJQsqaUBKTNV-1">
          <mxGeometry x="250" y="770" width="90" height="40" as="geometry" />
        </mxCell>
        <mxCell id="otYcFLlBqvZuVtRaeN3p-131" value="" style="endArrow=none;html=1;rounded=0;exitX=0.5;exitY=0;exitDx=0;exitDy=0;entryX=0.5;entryY=1;entryDx=0;entryDy=0;" edge="1" parent="WIyWlLk6GJQsqaUBKTNV-1" source="otYcFLlBqvZuVtRaeN3p-130">
          <mxGeometry width="50" height="50" relative="1" as="geometry">
            <mxPoint x="399.5" y="710" as="sourcePoint" />
            <mxPoint x="250" y="650" as="targetPoint" />
          </mxGeometry>
        </mxCell>
        <mxCell id="otYcFLlBqvZuVtRaeN3p-141" value="origem" style="ellipse;whiteSpace=wrap;html=1;fillColor=#d5e8d4;strokeColor=#82b366;" vertex="1" parent="WIyWlLk6GJQsqaUBKTNV-1">
          <mxGeometry x="500" y="770" width="90" height="40" as="geometry" />
        </mxCell>
        <mxCell id="otYcFLlBqvZuVtRaeN3p-142" value="&lt;u&gt;IdRota&lt;/u&gt;" style="ellipse;whiteSpace=wrap;html=1;fillColor=#d5e8d4;strokeColor=#82b366;" vertex="1" parent="WIyWlLk6GJQsqaUBKTNV-1">
          <mxGeometry x="450" y="720" width="90" height="40" as="geometry" />
        </mxCell>
        <mxCell id="otYcFLlBqvZuVtRaeN3p-143" value="distancia" style="ellipse;whiteSpace=wrap;html=1;dashed=1;fillColor=#d5e8d4;strokeColor=#82b366;" vertex="1" parent="WIyWlLk6GJQsqaUBKTNV-1">
          <mxGeometry x="660" y="720" width="90" height="40" as="geometry" />
        </mxCell>
        <mxCell id="otYcFLlBqvZuVtRaeN3p-144" value="" style="endArrow=none;html=1;rounded=0;entryX=0.5;entryY=1;entryDx=0;entryDy=0;exitX=0.5;exitY=0;exitDx=0;exitDy=0;" edge="1" parent="WIyWlLk6GJQsqaUBKTNV-1" source="otYcFLlBqvZuVtRaeN3p-141">
          <mxGeometry width="50" height="50" relative="1" as="geometry">
            <mxPoint x="599.5" y="690" as="sourcePoint" />
            <mxPoint x="599.5" y="650" as="targetPoint" />
          </mxGeometry>
        </mxCell>
        <mxCell id="otYcFLlBqvZuVtRaeN3p-145" value="" style="endArrow=none;html=1;rounded=0;exitX=0.5;exitY=0;exitDx=0;exitDy=0;" edge="1" parent="WIyWlLk6GJQsqaUBKTNV-1" source="otYcFLlBqvZuVtRaeN3p-142">
          <mxGeometry width="50" height="50" relative="1" as="geometry">
            <mxPoint x="620" y="770" as="sourcePoint" />
            <mxPoint x="600" y="650" as="targetPoint" />
          </mxGeometry>
        </mxCell>
        <mxCell id="otYcFLlBqvZuVtRaeN3p-146" value="" style="endArrow=none;html=1;rounded=0;exitX=0.5;exitY=0;exitDx=0;exitDy=0;" edge="1" parent="WIyWlLk6GJQsqaUBKTNV-1" source="otYcFLlBqvZuVtRaeN3p-143">
          <mxGeometry width="50" height="50" relative="1" as="geometry">
            <mxPoint x="670" y="730" as="sourcePoint" />
            <mxPoint x="600" y="650" as="targetPoint" />
          </mxGeometry>
        </mxCell>
        <mxCell id="otYcFLlBqvZuVtRaeN3p-147" value="destino" style="ellipse;whiteSpace=wrap;html=1;fillColor=#d5e8d4;strokeColor=#82b366;" vertex="1" parent="WIyWlLk6GJQsqaUBKTNV-1">
          <mxGeometry x="600" y="770" width="90" height="40" as="geometry" />
        </mxCell>
        <mxCell id="otYcFLlBqvZuVtRaeN3p-148" value="" style="endArrow=none;html=1;rounded=0;exitX=0.5;exitY=0;exitDx=0;exitDy=0;entryX=0.5;entryY=1;entryDx=0;entryDy=0;" edge="1" parent="WIyWlLk6GJQsqaUBKTNV-1" source="otYcFLlBqvZuVtRaeN3p-147">
          <mxGeometry width="50" height="50" relative="1" as="geometry">
            <mxPoint x="749.5" y="710" as="sourcePoint" />
            <mxPoint x="600" y="650" as="targetPoint" />
          </mxGeometry>
        </mxCell>
        <mxCell id="otYcFLlBqvZuVtRaeN3p-151" value="&lt;u&gt;motorista&lt;/u&gt;" style="ellipse;whiteSpace=wrap;html=1;fillColor=#d5e8d4;strokeColor=#82b366;" vertex="1" parent="WIyWlLk6GJQsqaUBKTNV-1">
          <mxGeometry x="640" y="370" width="90" height="40" as="geometry" />
        </mxCell>
        <mxCell id="otYcFLlBqvZuVtRaeN3p-152" value="" style="endArrow=none;html=1;rounded=0;exitX=0;exitY=0;exitDx=0;exitDy=0;entryX=1;entryY=0.5;entryDx=0;entryDy=0;" edge="1" parent="WIyWlLk6GJQsqaUBKTNV-1" source="otYcFLlBqvZuVtRaeN3p-151" target="otYcFLlBqvZuVtRaeN3p-9">
          <mxGeometry width="50" height="50" relative="1" as="geometry">
            <mxPoint x="426" y="300" as="sourcePoint" />
            <mxPoint x="426" y="340" as="targetPoint" />
          </mxGeometry>
        </mxCell>
        <mxCell id="otYcFLlBqvZuVtRaeN3p-153" value="status" style="ellipse;whiteSpace=wrap;html=1;dashed=1;fillColor=#d5e8d4;strokeColor=#82b366;" vertex="1" parent="WIyWlLk6GJQsqaUBKTNV-1">
          <mxGeometry x="581" y="430" width="90" height="40" as="geometry" />
        </mxCell>
        <mxCell id="otYcFLlBqvZuVtRaeN3p-154" value="" style="endArrow=none;html=1;rounded=0;exitX=0.5;exitY=0;exitDx=0;exitDy=0;entryX=0.5;entryY=1;entryDx=0;entryDy=0;" edge="1" parent="WIyWlLk6GJQsqaUBKTNV-1" source="otYcFLlBqvZuVtRaeN3p-153" target="otYcFLlBqvZuVtRaeN3p-9">
          <mxGeometry width="50" height="50" relative="1" as="geometry">
            <mxPoint x="701" y="380" as="sourcePoint" />
            <mxPoint x="691" y="320" as="targetPoint" />
          </mxGeometry>
        </mxCell>
        <mxCell id="otYcFLlBqvZuVtRaeN3p-155" value="&lt;u&gt;IdCliente&lt;/u&gt;" style="ellipse;whiteSpace=wrap;html=1;fillColor=#d5e8d4;strokeColor=#82b366;" vertex="1" parent="WIyWlLk6GJQsqaUBKTNV-1">
          <mxGeometry x="65" y="440" width="90" height="40" as="geometry" />
        </mxCell>
        <mxCell id="otYcFLlBqvZuVtRaeN3p-156" value="" style="endArrow=none;html=1;rounded=0;entryX=0.5;entryY=1;entryDx=0;entryDy=0;exitX=0.5;exitY=0;exitDx=0;exitDy=0;" edge="1" parent="WIyWlLk6GJQsqaUBKTNV-1" source="otYcFLlBqvZuVtRaeN3p-155" target="otYcFLlBqvZuVtRaeN3p-120">
          <mxGeometry width="50" height="50" relative="1" as="geometry">
            <mxPoint x="180" y="415" as="sourcePoint" />
            <mxPoint x="180" y="375" as="targetPoint" />
          </mxGeometry>
        </mxCell>
        <mxCell id="otYcFLlBqvZuVtRaeN3p-157" value="&lt;u&gt;IdEntrega&lt;/u&gt;" style="ellipse;whiteSpace=wrap;html=1;fillColor=#d5e8d4;strokeColor=#82b366;" vertex="1" parent="WIyWlLk6GJQsqaUBKTNV-1">
          <mxGeometry x="70" y="520" width="90" height="40" as="geometry" />
        </mxCell>
        <mxCell id="otYcFLlBqvZuVtRaeN3p-158" value="" style="endArrow=none;html=1;rounded=0;entryX=0.5;entryY=1;entryDx=0;entryDy=0;exitX=0.5;exitY=0;exitDx=0;exitDy=0;" edge="1" parent="WIyWlLk6GJQsqaUBKTNV-1" source="otYcFLlBqvZuVtRaeN3p-157" target="otYcFLlBqvZuVtRaeN3p-120">
          <mxGeometry width="50" height="50" relative="1" as="geometry">
            <mxPoint x="184.75" y="430" as="sourcePoint" />
            <mxPoint x="184.75" y="390" as="targetPoint" />
          </mxGeometry>
        </mxCell>
        <mxCell id="otYcFLlBqvZuVtRaeN3p-159" value="&lt;u&gt;IdEntrega&lt;/u&gt;" style="ellipse;whiteSpace=wrap;html=1;fillColor=#d5e8d4;strokeColor=#82b366;" vertex="1" parent="WIyWlLk6GJQsqaUBKTNV-1">
          <mxGeometry x="160" y="500" width="90" height="40" as="geometry" />
        </mxCell>
        <mxCell id="otYcFLlBqvZuVtRaeN3p-160" value="" style="endArrow=none;html=1;rounded=0;entryX=0.5;entryY=1;entryDx=0;entryDy=0;exitX=0.5;exitY=0;exitDx=0;exitDy=0;" edge="1" parent="WIyWlLk6GJQsqaUBKTNV-1" source="otYcFLlBqvZuVtRaeN3p-159" target="otYcFLlBqvZuVtRaeN3p-120">
          <mxGeometry width="50" height="50" relative="1" as="geometry">
            <mxPoint x="274.75" y="430" as="sourcePoint" />
            <mxPoint x="274.75" y="390" as="targetPoint" />
          </mxGeometry>
        </mxCell>
        <mxCell id="otYcFLlBqvZuVtRaeN3p-161" value="&lt;u&gt;IdPedido&lt;/u&gt;" style="ellipse;whiteSpace=wrap;html=1;fillColor=#d5e8d4;strokeColor=#82b366;" vertex="1" parent="WIyWlLk6GJQsqaUBKTNV-1">
          <mxGeometry x="230" y="450" width="90" height="40" as="geometry" />
        </mxCell>
        <mxCell id="otYcFLlBqvZuVtRaeN3p-162" value="" style="endArrow=none;html=1;rounded=0;entryX=0.5;entryY=1;entryDx=0;entryDy=0;exitX=0.5;exitY=0;exitDx=0;exitDy=0;" edge="1" parent="WIyWlLk6GJQsqaUBKTNV-1" source="otYcFLlBqvZuVtRaeN3p-161" target="otYcFLlBqvZuVtRaeN3p-120">
          <mxGeometry width="50" height="50" relative="1" as="geometry">
            <mxPoint x="389.5" y="415" as="sourcePoint" />
            <mxPoint x="279.5" y="385" as="targetPoint" />
          </mxGeometry>
        </mxCell>
        <mxCell id="otYcFLlBqvZuVtRaeN3p-163" value="dataPedido" style="ellipse;whiteSpace=wrap;html=1;fillColor=#d5e8d4;strokeColor=#82b366;" vertex="1" parent="WIyWlLk6GJQsqaUBKTNV-1">
          <mxGeometry x="25.25" y="380" width="90" height="40" as="geometry" />
        </mxCell>
        <mxCell id="otYcFLlBqvZuVtRaeN3p-164" value="" style="endArrow=none;html=1;rounded=0;entryX=0;entryY=0.5;entryDx=0;entryDy=0;exitX=0.5;exitY=0;exitDx=0;exitDy=0;" edge="1" parent="WIyWlLk6GJQsqaUBKTNV-1" source="otYcFLlBqvZuVtRaeN3p-163" target="otYcFLlBqvZuVtRaeN3p-120">
          <mxGeometry width="50" height="50" relative="1" as="geometry">
            <mxPoint x="144.75" y="300" as="sourcePoint" />
            <mxPoint x="144.75" y="260" as="targetPoint" />
          </mxGeometry>
        </mxCell>
        <mxCell id="otYcFLlBqvZuVtRaeN3p-165" value="valor" style="ellipse;whiteSpace=wrap;html=1;fillColor=#d5e8d4;strokeColor=#82b366;" vertex="1" parent="WIyWlLk6GJQsqaUBKTNV-1">
          <mxGeometry x="65" y="300" width="90" height="40" as="geometry" />
        </mxCell>
        <mxCell id="otYcFLlBqvZuVtRaeN3p-166" value="" style="endArrow=none;html=1;rounded=0;entryX=0.5;entryY=0;entryDx=0;entryDy=0;exitX=0.5;exitY=1;exitDx=0;exitDy=0;" edge="1" parent="WIyWlLk6GJQsqaUBKTNV-1" source="otYcFLlBqvZuVtRaeN3p-165" target="otYcFLlBqvZuVtRaeN3p-120">
          <mxGeometry width="50" height="50" relative="1" as="geometry">
            <mxPoint x="449.5" y="400" as="sourcePoint" />
            <mxPoint x="449.5" y="360" as="targetPoint" />
          </mxGeometry>
        </mxCell>
        <mxCell id="otYcFLlBqvZuVtRaeN3p-168" value="possui" style="rhombus;whiteSpace=wrap;html=1;fillColor=#fff2cc;strokeColor=#d6b656;" vertex="1" parent="WIyWlLk6GJQsqaUBKTNV-1">
          <mxGeometry x="340" y="330" width="80" height="70" as="geometry" />
        </mxCell>
        <mxCell id="otYcFLlBqvZuVtRaeN3p-169" value="" style="endArrow=none;html=1;rounded=0;exitX=1;exitY=0.5;exitDx=0;exitDy=0;entryX=0;entryY=0.5;entryDx=0;entryDy=0;" edge="1" parent="WIyWlLk6GJQsqaUBKTNV-1" source="otYcFLlBqvZuVtRaeN3p-120" target="otYcFLlBqvZuVtRaeN3p-168">
          <mxGeometry width="50" height="50" relative="1" as="geometry">
            <mxPoint x="310" y="410" as="sourcePoint" />
            <mxPoint x="350" y="360" as="targetPoint" />
          </mxGeometry>
        </mxCell>
        <mxCell id="otYcFLlBqvZuVtRaeN3p-172" value="" style="endArrow=none;html=1;rounded=0;entryX=0;entryY=0.5;entryDx=0;entryDy=0;exitX=1;exitY=0.5;exitDx=0;exitDy=0;" edge="1" parent="WIyWlLk6GJQsqaUBKTNV-1" source="otYcFLlBqvZuVtRaeN3p-168" target="otYcFLlBqvZuVtRaeN3p-9">
          <mxGeometry width="50" height="50" relative="1" as="geometry">
            <mxPoint x="430" y="395" as="sourcePoint" />
            <mxPoint x="460" y="325" as="targetPoint" />
          </mxGeometry>
        </mxCell>
      </root>
    </mxGraphModel>
  </diagram>
</mxfile>
